<svg width="22" height="22" viewBox="0 0 35 35" fill="none" xmlns="http://www.w3.org/2000/svg">
<path d="M24.2308 14.8077C24.2308 12.2135 23.3088 9.99449 21.4648 8.15054C19.6209 6.30659 17.4018 5.38462 14.8077 5.38462C12.2135 5.38462 9.99449 6.30659 8.15054 8.15054C6.30659 9.99449 5.38462 12.2135 5.38462 14.8077C5.38462 17.4018 6.30659 19.6209 8.15054 21.4648C9.99449 23.3088 12.2135 24.2308 14.8077 24.2308C17.4018 24.2308 19.6209 23.3088 21.4648 21.4648C23.3088 19.6209 24.2308 17.4018 24.2308 14.8077ZM35 32.3077C35 33.0369 34.7336 33.6679 34.2007 34.2007C33.6679 34.7336 33.0369 35 32.3077 35C31.5505 35 30.9195 34.7336 30.4147 34.2007L23.2001 27.0072C20.6901 28.746 17.8926 29.6154 14.8077 29.6154C12.8025 29.6154 10.8849 29.2263 9.05499 28.448C7.22506 27.6698 5.64754 26.6181 4.32242 25.293C2.9973 23.9678 1.94561 22.3903 1.16737 20.5604C0.389123 18.7305 0 16.8129 0 14.8077C0 12.8025 0.389123 10.8849 1.16737 9.05499C1.94561 7.22506 2.9973 5.64754 4.32242 4.32242C5.64754 2.9973 7.22506 1.94561 9.05499 1.16737C10.8849 0.389123 12.8025 0 14.8077 0C16.8129 0 18.7305 0.389123 20.5604 1.16737C22.3903 1.94561 23.9678 2.9973 25.293 4.32242C26.6181 5.64754 27.6698 7.22506 28.448 9.05499C29.2263 10.8849 29.6154 12.8025 29.6154 14.8077C29.6154 17.8926 28.746 20.6901 27.0072 23.2001L34.2218 30.4147C34.7406 30.9335 35 31.5645 35 32.3077Z" fill="white"/>
</svg>
